<?xml version="1.0" encoding="UTF-8"?>
<svg id="a" data-name="Layer 1" xmlns="http://www.w3.org/2000/svg" viewBox="0 0 118.58 118.58">
  <path d="M95.14,75.64v-32.69c0-2.69-1.44-5.18-3.77-6.53l-28.31-16.34c-2.33-1.35-5.21-1.35-7.54,0l-28.31,16.34c-2.33,1.35-3.77,3.83-3.77,6.53v32.69c0,2.69,1.44,5.18,3.77,6.53l28.31,16.34c2.33,1.35,5.21,1.35,7.54,0l28.31-16.34c2.33-1.35,3.77-3.83,3.77-6.53Z" style="fill: #1c8ab2;"/>
  <path d="M59.29,94.67c-.89,0-1.79-.23-2.58-.69l-26.2-15.12c-1.59-.92-2.58-2.63-2.58-4.47v-30.25c0-1.84.99-3.55,2.58-4.47l26.2-15.13c1.59-.92,3.57-.92,5.16,0l26.2,15.13c1.59.92,2.58,2.63,2.58,4.47v30.25c0,1.84-.99,3.55-2.58,4.47l-26.2,15.12c-.8.46-1.69.69-2.58.69ZM59.29,26.85c-.37,0-.75.1-1.08.29l-26.2,15.13c-.67.39-1.08,1.1-1.08,1.87v30.25c0,.77.41,1.49,1.08,1.87l26.2,15.12c.67.38,1.5.38,2.16,0l26.2-15.12c.67-.39,1.08-1.1,1.08-1.87v-30.25c0-.77-.41-1.49-1.08-1.87l-26.2-15.13c-.33-.19-.71-.29-1.08-.29Z" style="fill: #00bdf2;"/>
</svg>