<svg width="400" height="250" viewBox="0 0 400 250" fill="none" xmlns="http://www.w3.org/2000/svg">
<rect x="300.5" y="249.5" width="99" height="99" rx="9.5" transform="rotate(-90 300.5 249.5)" fill="url(#paint0_linear_20_293)" stroke="url(#paint1_linear_20_293)"/>
<circle cx="329" cy="200" r="9.5" transform="rotate(-90 329 200)" fill="url(#paint2_radial_20_293)" stroke="#858585"/>
<circle cx="371" cy="200" r="9.5" transform="rotate(-90 371 200)" fill="url(#paint3_radial_20_293)" stroke="#858585"/>
<circle cx="329" cy="172" r="9.5" transform="rotate(-90 329 172)" fill="url(#paint4_radial_20_293)" stroke="#858585"/>
<circle cx="371" cy="172" r="9.5" transform="rotate(-90 371 172)" fill="url(#paint5_radial_20_293)" stroke="#858585"/>
<circle cx="329" cy="228" r="9.5" transform="rotate(-90 329 228)" fill="url(#paint6_radial_20_293)" stroke="#858585"/>
<circle cx="371" cy="228" r="9.5" transform="rotate(-90 371 228)" fill="url(#paint7_radial_20_293)" stroke="#858585"/>
<rect x="150.5" y="249.5" width="99" height="99" rx="9.5" transform="rotate(-90 150.5 249.5)" fill="url(#paint8_linear_20_293)" stroke="url(#paint9_linear_20_293)"/>
<circle cx="200" cy="200" r="9.5" transform="rotate(-90 200 200)" fill="url(#paint10_radial_20_293)" stroke="#858585"/>
<circle cx="172" cy="172" r="9.5" transform="rotate(-90 172 172)" fill="url(#paint11_radial_20_293)" stroke="#858585"/>
<circle cx="228" cy="172" r="9.5" transform="rotate(-90 228 172)" fill="url(#paint12_radial_20_293)" stroke="#858585"/>
<circle cx="172" cy="228" r="9.5" transform="rotate(-90 172 228)" fill="url(#paint13_radial_20_293)" stroke="#858585"/>
<circle cx="228" cy="228" r="9.5" transform="rotate(-90 228 228)" fill="url(#paint14_radial_20_293)" stroke="#858585"/>
<rect x="0.500004" y="249.5" width="99" height="99" rx="9.5" transform="rotate(-90 0.500004 249.5)" fill="url(#paint15_linear_20_293)" stroke="url(#paint16_linear_20_293)"/>
<circle cx="22" cy="172" r="9.5" transform="rotate(-90 22 172)" fill="url(#paint17_radial_20_293)" stroke="#858585"/>
<circle cx="78" cy="172" r="9.5" transform="rotate(-90 78 172)" fill="url(#paint18_radial_20_293)" stroke="#858585"/>
<circle cx="22" cy="228" r="9.5" transform="rotate(-90 22 228)" fill="url(#paint19_radial_20_293)" stroke="#858585"/>
<circle cx="78" cy="228" r="9.5" transform="rotate(-90 78 228)" fill="url(#paint20_radial_20_293)" stroke="#858585"/>
<rect x="300.5" y="99.5" width="99" height="99" rx="9.5" transform="rotate(-90 300.5 99.5)" fill="url(#paint21_linear_20_293)" stroke="url(#paint22_linear_20_293)"/>
<circle cx="350" cy="50" r="9.5" transform="rotate(-90 350 50)" fill="url(#paint23_radial_20_293)" stroke="#858585"/>
<circle cx="378" cy="22" r="9.5" transform="rotate(-90 378 22)" fill="url(#paint24_radial_20_293)" stroke="#858585"/>
<circle cx="322" cy="78" r="9.5" transform="rotate(-90 322 78)" fill="url(#paint25_radial_20_293)" stroke="#858585"/>
<rect x="150.5" y="99.5" width="99" height="99" rx="9.5" transform="rotate(-90 150.5 99.5)" fill="url(#paint26_linear_20_293)" stroke="url(#paint27_linear_20_293)"/>
<circle cx="172" cy="22" r="9.5" transform="rotate(-90 172 22)" fill="url(#paint28_radial_20_293)" stroke="#858585"/>
<circle cx="228" cy="78" r="9.5" transform="rotate(-90 228 78)" fill="url(#paint29_radial_20_293)" stroke="#858585"/>
<rect x="0.500004" y="99.5" width="99" height="99" rx="9.5" transform="rotate(-90 0.500004 99.5)" fill="url(#paint30_linear_20_293)" stroke="url(#paint31_linear_20_293)"/>
<circle cx="50" cy="50" r="9.5" transform="rotate(-90 50 50)" fill="url(#paint32_radial_20_293)" stroke="#858585"/>
<defs>
<linearGradient id="paint0_linear_20_293" x1="348.5" y1="303.5" x2="400" y2="337.5" gradientUnits="userSpaceOnUse">
<stop stop-color="white"/>
<stop offset="1" stop-color="#C4C4C4"/>
</linearGradient>
<linearGradient id="paint1_linear_20_293" x1="300" y1="295.5" x2="411" y2="312.5" gradientUnits="userSpaceOnUse">
<stop stop-color="#929292"/>
<stop offset="1" stop-color="#D4D4D4"/>
</linearGradient>
<radialGradient id="paint2_radial_20_293" cx="0" cy="0" r="1" gradientUnits="userSpaceOnUse" gradientTransform="translate(334.714 196.429) rotate(112.834) scale(14.7254)">
<stop stop-color="#EBF9FF"/>
<stop offset="1" stop-color="#8C8C8C"/>
</radialGradient>
<radialGradient id="paint3_radial_20_293" cx="0" cy="0" r="1" gradientUnits="userSpaceOnUse" gradientTransform="translate(376.714 196.429) rotate(112.834) scale(14.7254)">
<stop stop-color="#EBF9FF"/>
<stop offset="1" stop-color="#8C8C8C"/>
</radialGradient>
<radialGradient id="paint4_radial_20_293" cx="0" cy="0" r="1" gradientUnits="userSpaceOnUse" gradientTransform="translate(334.714 168.429) rotate(112.834) scale(14.7254)">
<stop stop-color="#EBF9FF"/>
<stop offset="1" stop-color="#8C8C8C"/>
</radialGradient>
<radialGradient id="paint5_radial_20_293" cx="0" cy="0" r="1" gradientUnits="userSpaceOnUse" gradientTransform="translate(376.714 168.429) rotate(112.834) scale(14.7254)">
<stop stop-color="#EBF9FF"/>
<stop offset="1" stop-color="#8C8C8C"/>
</radialGradient>
<radialGradient id="paint6_radial_20_293" cx="0" cy="0" r="1" gradientUnits="userSpaceOnUse" gradientTransform="translate(334.714 224.429) rotate(112.834) scale(14.7254)">
<stop stop-color="#EBF9FF"/>
<stop offset="1" stop-color="#8C8C8C"/>
</radialGradient>
<radialGradient id="paint7_radial_20_293" cx="0" cy="0" r="1" gradientUnits="userSpaceOnUse" gradientTransform="translate(376.714 224.429) rotate(112.834) scale(14.7254)">
<stop stop-color="#EBF9FF"/>
<stop offset="1" stop-color="#8C8C8C"/>
</radialGradient>
<linearGradient id="paint8_linear_20_293" x1="198.5" y1="303.5" x2="250" y2="337.5" gradientUnits="userSpaceOnUse">
<stop stop-color="white"/>
<stop offset="1" stop-color="#C4C4C4"/>
</linearGradient>
<linearGradient id="paint9_linear_20_293" x1="150" y1="295.5" x2="261" y2="312.5" gradientUnits="userSpaceOnUse">
<stop stop-color="#929292"/>
<stop offset="1" stop-color="#D4D4D4"/>
</linearGradient>
<radialGradient id="paint10_radial_20_293" cx="0" cy="0" r="1" gradientUnits="userSpaceOnUse" gradientTransform="translate(205.714 196.429) rotate(112.834) scale(14.7254)">
<stop stop-color="#EBF9FF"/>
<stop offset="1" stop-color="#8C8C8C"/>
</radialGradient>
<radialGradient id="paint11_radial_20_293" cx="0" cy="0" r="1" gradientUnits="userSpaceOnUse" gradientTransform="translate(177.714 168.429) rotate(112.834) scale(14.7254)">
<stop stop-color="#EBF9FF"/>
<stop offset="1" stop-color="#8C8C8C"/>
</radialGradient>
<radialGradient id="paint12_radial_20_293" cx="0" cy="0" r="1" gradientUnits="userSpaceOnUse" gradientTransform="translate(233.714 168.429) rotate(112.834) scale(14.7254)">
<stop stop-color="#EBF9FF"/>
<stop offset="1" stop-color="#8C8C8C"/>
</radialGradient>
<radialGradient id="paint13_radial_20_293" cx="0" cy="0" r="1" gradientUnits="userSpaceOnUse" gradientTransform="translate(177.714 224.429) rotate(112.834) scale(14.7254)">
<stop stop-color="#EBF9FF"/>
<stop offset="1" stop-color="#8C8C8C"/>
</radialGradient>
<radialGradient id="paint14_radial_20_293" cx="0" cy="0" r="1" gradientUnits="userSpaceOnUse" gradientTransform="translate(233.714 224.429) rotate(112.834) scale(14.7254)">
<stop stop-color="#EBF9FF"/>
<stop offset="1" stop-color="#8C8C8C"/>
</radialGradient>
<linearGradient id="paint15_linear_20_293" x1="48.5" y1="303.5" x2="100" y2="337.5" gradientUnits="userSpaceOnUse">
<stop stop-color="white"/>
<stop offset="1" stop-color="#C4C4C4"/>
</linearGradient>
<linearGradient id="paint16_linear_20_293" x1="3.21224e-06" y1="295.5" x2="111" y2="312.5" gradientUnits="userSpaceOnUse">
<stop stop-color="#929292"/>
<stop offset="1" stop-color="#D4D4D4"/>
</linearGradient>
<radialGradient id="paint17_radial_20_293" cx="0" cy="0" r="1" gradientUnits="userSpaceOnUse" gradientTransform="translate(27.7143 168.429) rotate(112.834) scale(14.7254)">
<stop stop-color="#EBF9FF"/>
<stop offset="1" stop-color="#8C8C8C"/>
</radialGradient>
<radialGradient id="paint18_radial_20_293" cx="0" cy="0" r="1" gradientUnits="userSpaceOnUse" gradientTransform="translate(83.7143 168.429) rotate(112.834) scale(14.7254)">
<stop stop-color="#EBF9FF"/>
<stop offset="1" stop-color="#8C8C8C"/>
</radialGradient>
<radialGradient id="paint19_radial_20_293" cx="0" cy="0" r="1" gradientUnits="userSpaceOnUse" gradientTransform="translate(27.7143 224.429) rotate(112.834) scale(14.7254)">
<stop stop-color="#EBF9FF"/>
<stop offset="1" stop-color="#8C8C8C"/>
</radialGradient>
<radialGradient id="paint20_radial_20_293" cx="0" cy="0" r="1" gradientUnits="userSpaceOnUse" gradientTransform="translate(83.7143 224.429) rotate(112.834) scale(14.7254)">
<stop stop-color="#EBF9FF"/>
<stop offset="1" stop-color="#8C8C8C"/>
</radialGradient>
<linearGradient id="paint21_linear_20_293" x1="348.5" y1="153.5" x2="400" y2="187.5" gradientUnits="userSpaceOnUse">
<stop stop-color="white"/>
<stop offset="1" stop-color="#C4C4C4"/>
</linearGradient>
<linearGradient id="paint22_linear_20_293" x1="300" y1="145.5" x2="411" y2="162.5" gradientUnits="userSpaceOnUse">
<stop stop-color="#929292"/>
<stop offset="1" stop-color="#D4D4D4"/>
</linearGradient>
<radialGradient id="paint23_radial_20_293" cx="0" cy="0" r="1" gradientUnits="userSpaceOnUse" gradientTransform="translate(355.714 46.4286) rotate(112.834) scale(14.7254)">
<stop stop-color="#EBF9FF"/>
<stop offset="1" stop-color="#8C8C8C"/>
</radialGradient>
<radialGradient id="paint24_radial_20_293" cx="0" cy="0" r="1" gradientUnits="userSpaceOnUse" gradientTransform="translate(383.714 18.4286) rotate(112.834) scale(14.7254)">
<stop stop-color="#EBF9FF"/>
<stop offset="1" stop-color="#8C8C8C"/>
</radialGradient>
<radialGradient id="paint25_radial_20_293" cx="0" cy="0" r="1" gradientUnits="userSpaceOnUse" gradientTransform="translate(327.714 74.4286) rotate(112.834) scale(14.7254)">
<stop stop-color="#EBF9FF"/>
<stop offset="1" stop-color="#8C8C8C"/>
</radialGradient>
<linearGradient id="paint26_linear_20_293" x1="198.5" y1="153.5" x2="250" y2="187.5" gradientUnits="userSpaceOnUse">
<stop stop-color="white"/>
<stop offset="1" stop-color="#C4C4C4"/>
</linearGradient>
<linearGradient id="paint27_linear_20_293" x1="150" y1="145.5" x2="261" y2="162.5" gradientUnits="userSpaceOnUse">
<stop stop-color="#929292"/>
<stop offset="1" stop-color="#D4D4D4"/>
</linearGradient>
<radialGradient id="paint28_radial_20_293" cx="0" cy="0" r="1" gradientUnits="userSpaceOnUse" gradientTransform="translate(177.714 18.4286) rotate(112.834) scale(14.7254)">
<stop stop-color="#EBF9FF"/>
<stop offset="1" stop-color="#8C8C8C"/>
</radialGradient>
<radialGradient id="paint29_radial_20_293" cx="0" cy="0" r="1" gradientUnits="userSpaceOnUse" gradientTransform="translate(233.714 74.4286) rotate(112.834) scale(14.7254)">
<stop stop-color="#EBF9FF"/>
<stop offset="1" stop-color="#8C8C8C"/>
</radialGradient>
<linearGradient id="paint30_linear_20_293" x1="48.5" y1="153.5" x2="100" y2="187.5" gradientUnits="userSpaceOnUse">
<stop stop-color="white"/>
<stop offset="1" stop-color="#C4C4C4"/>
</linearGradient>
<linearGradient id="paint31_linear_20_293" x1="3.21224e-06" y1="145.5" x2="111" y2="162.5" gradientUnits="userSpaceOnUse">
<stop stop-color="#929292"/>
<stop offset="1" stop-color="#D4D4D4"/>
</linearGradient>
<radialGradient id="paint32_radial_20_293" cx="0" cy="0" r="1" gradientUnits="userSpaceOnUse" gradientTransform="translate(55.7143 46.4286) rotate(112.834) scale(14.7254)">
<stop stop-color="#EBF9FF"/>
<stop offset="1" stop-color="#8C8C8C"/>
</radialGradient>
</defs>
</svg>
