<?xml version="1.0" encoding="UTF-8"?>
<svg id="a" data-name="Layer 1" xmlns="http://www.w3.org/2000/svg" viewBox="0 0 118.58 118.58">
  <path d="M60.35,91.41l-14.72-8.5s-.03.05-.08.13c.04-.07.07-.13.08-.13l-14.72-8.5h-3v6.15c0,1.25-.66,2.4-1.74,3.02l-5.32,3.07,1.5,2.6,14.72,8.5s.03-.05.08-.13c-.04.07-.07.13-.08.13l14.72,8.5h3v-6.15c0-1.25.66-2.4,1.74-3.02l5.32-3.07-1.5-2.6ZM37.4,97.16c-.08.13-.14.24-.19.33.05-.09.11-.2.19-.33ZM45.47,83.18c-.05.09-.11.2-.19.33.08-.13.14-.24.19-.33ZM45.09,83.84c-.14.24-.3.53-.49.84.18-.32.35-.6.49-.84ZM44.28,85.25c-.79,1.38-1.85,3.2-2.9,5.03,1.06-1.83,2.11-3.65,2.9-5.03ZM41.31,90.39c-1.06,1.83-2.11,3.65-2.9,5.03.79-1.38,1.85-3.2,2.9-5.03ZM38.08,95.99c-.18.32-.35.6-.49.84.14-.24.3-.53.49-.84Z" style="fill: #1c8ab2;"/>
</svg>