<?xml version="1.0" encoding="UTF-8"?>
<svg id="a" data-name="Layer 1" xmlns="http://www.w3.org/2000/svg" viewBox="0 0 118.58 118.58">
  <path d="M92.44,83.63c-1.08-.62-1.74-1.77-1.74-3.02v-6.15h-3s-14.72,8.5-14.72,8.5l-14.72,8.5-1.5,2.6,5.32,3.07c1.08.62,1.74,1.77,1.74,3.02v6.15s3,0,3,0l14.72-8.5,14.72-8.5,1.5-2.6-5.32-3.07ZM81.39,97.53c.03.05.06.1.08.13-.02-.04-.05-.08-.08-.13ZM73.06,83.09s.05.08.08.13c-.03-.05-.06-.1-.08-.13ZM73.32,83.56c.06.1.12.21.19.33-.07-.12-.13-.23-.19-.33ZM74,84.73c.1.18.21.37.33.57-.12-.2-.23-.39-.33-.57ZM75.79,87.82c.19.32.38.66.57.99-.19-.34-.39-.67-.57-.99ZM76.67,89.34c.4.69.8,1.38,1.19,2.07-.4-.69-.8-1.38-1.19-2.07ZM79.02,93.41c.67,1.17,1.28,2.21,1.73,2.99-.45-.78-1.05-1.82-1.73-2.99ZM80.97,96.8c.12.21.23.39.31.54-.09-.15-.19-.33-.31-.54Z" style="fill: #1c8ab2;"/>
</svg>