<?xml version="1.0" encoding="UTF-8"?>
<svg id="a" data-name="Layer 1" xmlns="http://www.w3.org/2000/svg" viewBox="0 0 118.58 118.58">
  <path d="M56.57,21.5c-1.08-.62-1.74-1.77-1.74-3.02v-6.15s-3,0-3,0l-14.72,8.5-14.72,8.5-1.5,2.6,5.32,3.07c1.08.62,1.74,1.77,1.74,3.02v6.15h3l14.72-8.5,14.72-8.5,1.5-2.6-5.32-3.07ZM45.52,35.4c.03.05.06.1.08.13-.02-.04-.05-.08-.08-.13ZM37.19,20.96s.05.08.08.13c-.03-.05-.06-.1-.08-.13ZM37.45,21.42c.1.18.22.39.36.63-.14-.24-.26-.45-.36-.63ZM38.11,22.56c.17.3.37.64.57.99-.21-.36-.4-.69-.57-.99ZM39.64,25.2c.2.34.4.69.61,1.05-.21-.36-.41-.71-.61-1.05ZM41.1,27.74c.19.34.39.67.58,1.01-.19-.34-.39-.67-.58-1.01ZM42.54,30.24c.21.36.41.71.61,1.05-.2-.34-.4-.69-.61-1.05ZM44.1,32.94c.21.36.4.69.57.99-.17-.3-.37-.64-.57-.99ZM44.97,34.44c.14.24.26.45.36.63-.1-.18-.22-.39-.36-.63Z" style="fill: #1c8ab2;"/>
</svg>